<svg width="45" height="21" viewBox="0 0 45 21" fill="none" xmlns="http://www.w3.org/2000/svg">
<g id="layer1">
<path id="path5" d="M0.500061 17.1898V0.5L2.85219 1.04588L8.88974 9.98807V1.91487L11.3599 2.42269V15.505L9.78605 15.6833L3.37241 7.21952V16.6942L0.500061 17.1898Z" fill="black"/>
<path id="path6" d="M0.989349 17.6655L3.80269 17.1898V8.46826" stroke="black" stroke-width="0.422642" stroke-linejoin="round"/>
<path id="path7" d="M9.97748 16.3374L11.9055 16.0995V2.52173" stroke="black" stroke-width="0.422642" stroke-linejoin="round"/>
<path id="path8" d="M14.0151 2.64087V15.1086L15.9421 14.9919V2.74195L14.0151 2.64087Z" fill="black"/>
<path id="path9" d="M16.484 2.91016V15.5745H14.5949" stroke="black" stroke-width="0.422642" stroke-linejoin="round"/>
<path id="path10" d="M18.4393 14.6133V3.01733L20.003 3.1759L25.0788 9.83596V3.49305L27.1643 3.8102V13.8994L25.4723 14.276L20.5932 7.79433L20.4842 14.5713L18.4393 14.6133Z" fill="black"/>
<path id="path11" d="M18.5298 15.272H21.0616L21.006 9.03491" stroke="black" stroke-width="0.422642" stroke-linejoin="round"/>
<path id="path12" d="M26.0212 14.8095L27.6628 14.5012V4.00317" stroke="black" stroke-width="0.422642" stroke-linejoin="round"/>
<path id="path13" d="M27.8263 19.7574C32.4709 17.8062 31.5517 13.7571 31.6797 4.0875L29.7043 3.83521C29.7043 13.0875 29.9131 15.1087 27.8263 19.7574Z" fill="black"/>
<path id="path14" d="M27.9496 20.4999C31.7027 18.3713 32.2976 16.5691 32.2976 10.9814V4.14331" stroke="black" stroke-width="0.422642" stroke-linejoin="round"/>
<path id="path16" d="M33.3153 14.2364H36.109L36.7779 12.3218" stroke="black" stroke-width="0.422642" stroke-linejoin="round"/>
<path id="path17" d="M41.364 14.2363H44.3348L40.223 4.14331" stroke="black" stroke-width="0.422642" stroke-linejoin="round"/>
<path id="Subtract" fill-rule="evenodd" clip-rule="evenodd" d="M37.2096 4.14355L33.3142 13.4436L35.8029 13.4932L36.344 11.8282H40.4361L41.2034 13.4536H43.397L39.6098 4.14355H37.2096ZM38.5522 6.44657L36.8996 10.0244L39.9293 10.1136L38.5522 6.44657Z" fill="black"/>
<g id="path22">
<path d="M37.8176 9.41955L38.3636 8.06177L37.8176 9.41955Z" fill="black"/>
<path d="M37.8176 9.41955L38.3636 8.06177" stroke="black" stroke-width="0.422642" stroke-linejoin="round"/>
</g>
</g>
</svg>
