<svg xmlns="http://www.w3.org/2000/svg" width="1600" height="900" viewBox="0 0 1600 900"><rect width="1600" height="900" fill="#f6f8fb"/><rect x="100" y="72" width="74" height="8" rx="4" fill="#129b72"/><text x="100" y="150" fill="#111827" font-family="Arial" font-size="48" font-weight="800">Performance reporting boundary</text><text x="100" y="205" fill="#526071" font-family="Arial" font-size="25">Floor Scrubber Brush · WCB evidence workflow</text><rect x="100" y="300" width="420" height="160" rx="22" fill="#ffffff" stroke="#d7dde7" stroke-width="2"/><circle cx="148" cy="348" r="25" fill="#129b72"/><text x="148" y="357" text-anchor="middle" fill="#fff" font-family="Arial" font-size="24" font-weight="700">1</text><text x="188" y="354" fill="#111827" font-family="Arial" font-size="25" font-weight="700">Declared envelope</text><text x="132" y="412" fill="#4b5563" font-family="Arial" font-size="20">Retain rating, unit and condition</text><rect x="580" y="300" width="420" height="160" rx="22" fill="#ffffff" stroke="#d7dde7" stroke-width="2"/><circle cx="628" cy="348" r="25" fill="#129b72"/><text x="628" y="357" text-anchor="middle" fill="#fff" font-family="Arial" font-size="24" font-weight="700">2</text><text x="668" y="354" fill="#111827" font-family="Arial" font-size="25" font-weight="700">System interface</text><text x="612" y="412" fill="#4b5563" font-family="Arial" font-size="20">Match machine, drive and mounting</text><rect x="1060" y="300" width="420" height="160" rx="22" fill="#ffffff" stroke="#d7dde7" stroke-width="2"/><circle cx="1108" cy="348" r="25" fill="#129b72"/><text x="1108" y="357" text-anchor="middle" fill="#fff" font-family="Arial" font-size="24" font-weight="700">3</text><text x="1148" y="354" fill="#111827" font-family="Arial" font-size="25" font-weight="700">Duty evidence</text><text x="1092" y="412" fill="#4b5563" font-family="Arial" font-size="20">Confirm wear, heat and service scope</text><rect x="100" y="730" width="1400" height="92" rx="20" fill="#111827"/><text x="130" y="785" fill="#ffffff" font-family="Arial" font-size="24" font-weight="700">Compare values only inside the same documented operating and test boundary.</text></svg>